<mxfile host="Electron" modified="2024-05-13T10:19:26.265Z" agent="Mozilla/5.0 (Windows NT 10.0; Win64; x64) AppleWebKit/537.36 (KHTML, like Gecko) draw.io/24.2.5 Chrome/120.0.6099.109 Electron/28.1.0 Safari/537.36" etag="8Jtdnq1SJeqruHZ1Yy1j" version="24.2.5" type="device" pages="2">
  <diagram name="SpringWebFlux" id="fuxeGjwtVJRIuFBsgQl6">
    <mxGraphModel dx="-220" dy="844" grid="1" gridSize="10" guides="1" tooltips="1" connect="1" arrows="1" fold="1" page="1" pageScale="1" pageWidth="827" pageHeight="1169" math="0" shadow="0">
      <root>
        <mxCell id="0" />
        <mxCell id="1" parent="0" />
        <mxCell id="-YOxKYabcz1405DEn94w-74" value="&lt;div&gt;&lt;font color=&quot;#00cc00&quot; style=&quot;font-size: 20px;&quot;&gt;Spring WebFlux&lt;/font&gt;&lt;/div&gt;&lt;span style=&quot;font-weight: normal;&quot;&gt;&lt;font color=&quot;#999999&quot; style=&quot;font-size: 20px;&quot;&gt;Netty Server&lt;/font&gt;&lt;/span&gt;" style="text;strokeColor=#82b366;fillColor=#d5e8d4;html=1;fontSize=12;fontStyle=1;verticalAlign=top;align=center;fontFamily=Helvetica;horizontal=1;dashed=1;dashPattern=12 12;" parent="1" vertex="1">
          <mxGeometry x="1860" y="81" width="1410" height="1013" as="geometry" />
        </mxCell>
        <mxCell id="-YOxKYabcz1405DEn94w-62" style="edgeStyle=orthogonalEdgeStyle;rounded=0;orthogonalLoop=1;jettySize=auto;html=1;exitX=0.875;exitY=0.5;exitDx=0;exitDy=0;exitPerimeter=0;entryX=0;entryY=0.5;entryDx=0;entryDy=0;fontFamily=Helvetica;fontSize=12;fontColor=default;" parent="1" source="-YOxKYabcz1405DEn94w-1" target="-YOxKYabcz1405DEn94w-55" edge="1">
          <mxGeometry relative="1" as="geometry">
            <Array as="points">
              <mxPoint x="1820" y="484" />
              <mxPoint x="1820" y="159" />
            </Array>
          </mxGeometry>
        </mxCell>
        <mxCell id="-YOxKYabcz1405DEn94w-68" value="1、Http请求" style="edgeLabel;html=1;align=center;verticalAlign=middle;resizable=0;points=[];strokeColor=default;fontFamily=Helvetica;fontSize=12;fontColor=default;fillColor=default;" parent="-YOxKYabcz1405DEn94w-62" vertex="1" connectable="0">
          <mxGeometry x="0.1291" y="1" relative="1" as="geometry">
            <mxPoint y="47" as="offset" />
          </mxGeometry>
        </mxCell>
        <mxCell id="-YOxKYabcz1405DEn94w-1" value="Client" style="ellipse;shape=cloud;whiteSpace=wrap;html=1;fillColor=#66B2FF;" parent="1" vertex="1">
          <mxGeometry x="1670" y="444" width="120" height="80" as="geometry" />
        </mxCell>
        <mxCell id="-YOxKYabcz1405DEn94w-8" value="" style="edgeStyle=orthogonalEdgeStyle;rounded=0;orthogonalLoop=1;jettySize=auto;html=1;" parent="1" source="-YOxKYabcz1405DEn94w-4" target="-YOxKYabcz1405DEn94w-7" edge="1">
          <mxGeometry relative="1" as="geometry" />
        </mxCell>
        <mxCell id="-YOxKYabcz1405DEn94w-9" value="2、寻找@ReqquestMapping标注的&lt;div&gt;HandlerMethod&lt;/div&gt;" style="edgeLabel;html=1;align=center;verticalAlign=middle;resizable=0;points=[];" parent="-YOxKYabcz1405DEn94w-8" vertex="1" connectable="0">
          <mxGeometry x="-0.1286" y="1" relative="1" as="geometry">
            <mxPoint as="offset" />
          </mxGeometry>
        </mxCell>
        <mxCell id="-YOxKYabcz1405DEn94w-16" style="edgeStyle=orthogonalEdgeStyle;rounded=0;orthogonalLoop=1;jettySize=auto;html=1;entryX=0;entryY=0.5;entryDx=0;entryDy=0;exitX=0.5;exitY=0;exitDx=0;exitDy=0;" parent="1" source="-YOxKYabcz1405DEn94w-4" target="-YOxKYabcz1405DEn94w-12" edge="1">
          <mxGeometry relative="1" as="geometry" />
        </mxCell>
        <mxCell id="-YOxKYabcz1405DEn94w-44" value="4、根据HandlerMethod寻找&lt;div&gt;HandlerAdapter&lt;/div&gt;" style="edgeLabel;html=1;align=center;verticalAlign=middle;resizable=0;points=[];strokeColor=default;fontFamily=Helvetica;fontSize=12;fontColor=default;fillColor=default;" parent="-YOxKYabcz1405DEn94w-16" vertex="1" connectable="0">
          <mxGeometry x="-0.0916" y="1" relative="1" as="geometry">
            <mxPoint as="offset" />
          </mxGeometry>
        </mxCell>
        <mxCell id="-YOxKYabcz1405DEn94w-4" value="DispatcherHandler" style="whiteSpace=wrap;html=1;" parent="1" vertex="1">
          <mxGeometry x="2178" y="581" width="120" height="60" as="geometry" />
        </mxCell>
        <mxCell id="-YOxKYabcz1405DEn94w-7" value="&lt;font style=&quot;font-size: 7px;&quot;&gt;RequestMappingHandlerMapping&lt;/font&gt;" style="whiteSpace=wrap;html=1;fontStyle=0" parent="1" vertex="1">
          <mxGeometry x="2178" y="721" width="120" height="60" as="geometry" />
        </mxCell>
        <mxCell id="-YOxKYabcz1405DEn94w-20" style="edgeStyle=orthogonalEdgeStyle;rounded=0;orthogonalLoop=1;jettySize=auto;html=1;exitX=1;exitY=0.5;exitDx=0;exitDy=0;entryX=0;entryY=0.5;entryDx=0;entryDy=0;fontFamily=Helvetica;fontSize=12;fontColor=default;" parent="1" source="-YOxKYabcz1405DEn94w-10" target="-YOxKYabcz1405DEn94w-17" edge="1">
          <mxGeometry relative="1" as="geometry" />
        </mxCell>
        <mxCell id="-YOxKYabcz1405DEn94w-48" value="8、HandlerMethod执行结果" style="edgeLabel;html=1;align=center;verticalAlign=middle;resizable=0;points=[];strokeColor=default;fontFamily=Helvetica;fontSize=12;fontColor=default;fillColor=default;" parent="-YOxKYabcz1405DEn94w-20" vertex="1" connectable="0">
          <mxGeometry x="-0.1048" y="-1" relative="1" as="geometry">
            <mxPoint as="offset" />
          </mxGeometry>
        </mxCell>
        <mxCell id="-YOxKYabcz1405DEn94w-10" value="@Controller" style="ellipse;whiteSpace=wrap;html=1;" parent="1" vertex="1">
          <mxGeometry x="2429" y="641" width="120" height="80" as="geometry" />
        </mxCell>
        <mxCell id="-YOxKYabcz1405DEn94w-11" style="edgeStyle=orthogonalEdgeStyle;rounded=0;orthogonalLoop=1;jettySize=auto;html=1;entryX=0;entryY=0.5;entryDx=0;entryDy=0;" parent="1" source="-YOxKYabcz1405DEn94w-7" target="-YOxKYabcz1405DEn94w-10" edge="1">
          <mxGeometry relative="1" as="geometry" />
        </mxCell>
        <mxCell id="-YOxKYabcz1405DEn94w-45" value="3、关联HandlerMethod" style="edgeLabel;html=1;align=center;verticalAlign=middle;resizable=0;points=[];strokeColor=default;fontFamily=Helvetica;fontSize=12;fontColor=default;fillColor=default;" parent="-YOxKYabcz1405DEn94w-11" vertex="1" connectable="0">
          <mxGeometry x="-0.1279" relative="1" as="geometry">
            <mxPoint as="offset" />
          </mxGeometry>
        </mxCell>
        <mxCell id="-YOxKYabcz1405DEn94w-18" value="" style="edgeStyle=orthogonalEdgeStyle;rounded=0;orthogonalLoop=1;jettySize=auto;html=1;fontFamily=Helvetica;fontSize=12;fontColor=default;" parent="1" source="-YOxKYabcz1405DEn94w-12" target="-YOxKYabcz1405DEn94w-17" edge="1">
          <mxGeometry relative="1" as="geometry" />
        </mxCell>
        <mxCell id="-YOxKYabcz1405DEn94w-47" value="5、HandlerMethod转换" style="edgeLabel;html=1;align=center;verticalAlign=middle;resizable=0;points=[];strokeColor=default;fontFamily=Helvetica;fontSize=12;fontColor=default;fillColor=default;" parent="-YOxKYabcz1405DEn94w-18" vertex="1" connectable="0">
          <mxGeometry x="-0.3458" y="2" relative="1" as="geometry">
            <mxPoint as="offset" />
          </mxGeometry>
        </mxCell>
        <mxCell id="-YOxKYabcz1405DEn94w-12" value="&lt;font style=&quot;font-size: 7px;&quot;&gt;RequestMappingHandlerAdapter&lt;/font&gt;" style="whiteSpace=wrap;html=1;verticalAlign=middle;horizontal=1;" parent="1" vertex="1">
          <mxGeometry x="2423" y="464" width="120" height="60" as="geometry" />
        </mxCell>
        <mxCell id="-YOxKYabcz1405DEn94w-23" value="" style="edgeStyle=orthogonalEdgeStyle;rounded=0;orthogonalLoop=1;jettySize=auto;html=1;fontFamily=Helvetica;fontSize=12;fontColor=default;" parent="1" source="-YOxKYabcz1405DEn94w-17" target="-YOxKYabcz1405DEn94w-22" edge="1">
          <mxGeometry relative="1" as="geometry" />
        </mxCell>
        <mxCell id="-YOxKYabcz1405DEn94w-54" value="6、处理结果" style="edgeLabel;html=1;align=center;verticalAlign=middle;resizable=0;points=[];strokeColor=default;fontFamily=Helvetica;fontSize=12;fontColor=default;fillColor=default;" parent="-YOxKYabcz1405DEn94w-23" vertex="1" connectable="0">
          <mxGeometry x="0.0005" y="1" relative="1" as="geometry">
            <mxPoint as="offset" />
          </mxGeometry>
        </mxCell>
        <mxCell id="-YOxKYabcz1405DEn94w-26" value="" style="edgeStyle=orthogonalEdgeStyle;rounded=0;orthogonalLoop=1;jettySize=auto;html=1;fontFamily=Helvetica;fontSize=12;fontColor=default;" parent="1" source="-YOxKYabcz1405DEn94w-17" target="-YOxKYabcz1405DEn94w-25" edge="1">
          <mxGeometry relative="1" as="geometry" />
        </mxCell>
        <mxCell id="-YOxKYabcz1405DEn94w-49" value="9、处理HandlerMethod执行结果" style="edgeLabel;html=1;align=center;verticalAlign=middle;resizable=0;points=[];strokeColor=default;fontFamily=Helvetica;fontSize=12;fontColor=default;fillColor=default;" parent="-YOxKYabcz1405DEn94w-26" vertex="1" connectable="0">
          <mxGeometry x="-0.32" y="1" relative="1" as="geometry">
            <mxPoint as="offset" />
          </mxGeometry>
        </mxCell>
        <mxCell id="-YOxKYabcz1405DEn94w-17" value="&lt;pre style=&quot;background-color: rgb(255, 255, 255); font-family: Consolas; font-size: 8px;&quot;&gt;InvocableHandlerMethod&lt;/pre&gt;" style="whiteSpace=wrap;html=1;fontSize=8;" parent="1" vertex="1">
          <mxGeometry x="2713" y="581" width="120" height="60" as="geometry" />
        </mxCell>
        <mxCell id="-YOxKYabcz1405DEn94w-24" style="edgeStyle=orthogonalEdgeStyle;rounded=0;orthogonalLoop=1;jettySize=auto;html=1;entryX=0.5;entryY=1;entryDx=0;entryDy=0;fontFamily=Helvetica;fontSize=12;fontColor=default;" parent="1" source="-YOxKYabcz1405DEn94w-22" target="-YOxKYabcz1405DEn94w-10" edge="1">
          <mxGeometry relative="1" as="geometry" />
        </mxCell>
        <mxCell id="-YOxKYabcz1405DEn94w-46" value="7、解析方法参数" style="edgeLabel;html=1;align=center;verticalAlign=middle;resizable=0;points=[];strokeColor=default;fontFamily=Helvetica;fontSize=12;fontColor=default;fillColor=default;" parent="-YOxKYabcz1405DEn94w-24" vertex="1" connectable="0">
          <mxGeometry x="-0.0168" y="1" relative="1" as="geometry">
            <mxPoint as="offset" />
          </mxGeometry>
        </mxCell>
        <mxCell id="-YOxKYabcz1405DEn94w-22" value="HandlerMethodArgumentResolver" style="whiteSpace=wrap;html=1;fontSize=7;rounded=1;" parent="1" vertex="1">
          <mxGeometry x="2713" y="752" width="120" height="60" as="geometry" />
        </mxCell>
        <mxCell id="-YOxKYabcz1405DEn94w-25" value="HandlerResult" style="whiteSpace=wrap;html=1;fontSize=8;" parent="1" vertex="1">
          <mxGeometry x="2972" y="684" width="120" height="60" as="geometry" />
        </mxCell>
        <mxCell id="-YOxKYabcz1405DEn94w-36" value="" style="edgeStyle=orthogonalEdgeStyle;rounded=0;orthogonalLoop=1;jettySize=auto;html=1;fontFamily=Helvetica;fontSize=12;fontColor=default;" parent="1" source="-YOxKYabcz1405DEn94w-27" target="-YOxKYabcz1405DEn94w-35" edge="1">
          <mxGeometry relative="1" as="geometry" />
        </mxCell>
        <mxCell id="-YOxKYabcz1405DEn94w-52" value="11、操作" style="edgeLabel;html=1;align=center;verticalAlign=middle;resizable=0;points=[];strokeColor=default;fontFamily=Helvetica;fontSize=12;fontColor=default;fillColor=default;" parent="-YOxKYabcz1405DEn94w-36" vertex="1" connectable="0">
          <mxGeometry x="-0.1049" y="-2" relative="1" as="geometry">
            <mxPoint as="offset" />
          </mxGeometry>
        </mxCell>
        <mxCell id="-YOxKYabcz1405DEn94w-27" value="" style="shape=curlyBracket;whiteSpace=wrap;html=1;rounded=1;labelPosition=left;verticalLabelPosition=middle;align=right;verticalAlign=middle;strokeColor=default;fontFamily=Helvetica;fontSize=12;fontColor=default;fillColor=default;" parent="1" vertex="1">
          <mxGeometry x="2683" y="894" width="20" height="170" as="geometry" />
        </mxCell>
        <mxCell id="-YOxKYabcz1405DEn94w-28" value="" style="shape=curlyBracket;whiteSpace=wrap;html=1;rounded=1;flipH=1;labelPosition=right;verticalLabelPosition=middle;align=left;verticalAlign=middle;strokeColor=default;fontFamily=Helvetica;fontSize=12;fontColor=default;fillColor=default;" parent="1" vertex="1">
          <mxGeometry x="2988" y="894" width="20" height="170" as="geometry" />
        </mxCell>
        <mxCell id="-YOxKYabcz1405DEn94w-31" value="ResponseEntityResultHandler" style="rounded=1;whiteSpace=wrap;html=1;strokeColor=default;align=center;verticalAlign=middle;fontFamily=Helvetica;fontSize=7;fontColor=default;fillColor=default;" parent="1" vertex="1">
          <mxGeometry x="2703" y="904" width="120" height="60" as="geometry" />
        </mxCell>
        <mxCell id="-YOxKYabcz1405DEn94w-32" value="&lt;pre style=&quot;background-color: rgb(255, 255, 255); font-family: Consolas; font-size: 7px;&quot;&gt;ServerResponseResultHandler&lt;/pre&gt;" style="rounded=1;whiteSpace=wrap;html=1;strokeColor=default;align=center;verticalAlign=middle;fontFamily=Helvetica;fontSize=7;fontColor=default;fillColor=default;" parent="1" vertex="1">
          <mxGeometry x="2704" y="994" width="120" height="60" as="geometry" />
        </mxCell>
        <mxCell id="-YOxKYabcz1405DEn94w-33" value="&lt;pre style=&quot;background-color: rgb(255, 255, 255); font-family: Consolas; font-size: 8px;&quot;&gt;ResponseBodyResultHandler&lt;/pre&gt;" style="rounded=1;whiteSpace=wrap;html=1;strokeColor=default;align=center;verticalAlign=middle;fontFamily=Helvetica;fontSize=8;fontColor=default;fillColor=default;" parent="1" vertex="1">
          <mxGeometry x="2852" y="904" width="120" height="60" as="geometry" />
        </mxCell>
        <mxCell id="-YOxKYabcz1405DEn94w-34" value="ViewResolutionResultHandler" style="rounded=1;whiteSpace=wrap;html=1;strokeColor=default;align=center;verticalAlign=middle;fontFamily=Helvetica;fontSize=8;fontColor=default;fillColor=default;" parent="1" vertex="1">
          <mxGeometry x="2852" y="994" width="120" height="60" as="geometry" />
        </mxCell>
        <mxCell id="-YOxKYabcz1405DEn94w-40" value="" style="edgeStyle=orthogonalEdgeStyle;rounded=0;orthogonalLoop=1;jettySize=auto;html=1;fontFamily=Helvetica;fontSize=12;fontColor=default;" parent="1" source="-YOxKYabcz1405DEn94w-35" target="-YOxKYabcz1405DEn94w-39" edge="1">
          <mxGeometry relative="1" as="geometry" />
        </mxCell>
        <mxCell id="-YOxKYabcz1405DEn94w-53" value="12、写入" style="edgeLabel;html=1;align=center;verticalAlign=middle;resizable=0;points=[];strokeColor=default;fontFamily=Helvetica;fontSize=12;fontColor=default;fillColor=default;" parent="-YOxKYabcz1405DEn94w-40" vertex="1" connectable="0">
          <mxGeometry x="0.1757" y="-1" relative="1" as="geometry">
            <mxPoint as="offset" />
          </mxGeometry>
        </mxCell>
        <mxCell id="-YOxKYabcz1405DEn94w-35" value="ServerHttpResponse" style="whiteSpace=wrap;html=1;align=center;rounded=1;fontSize=11;" parent="1" vertex="1">
          <mxGeometry x="2355" y="949" width="120" height="60" as="geometry" />
        </mxCell>
        <mxCell id="-YOxKYabcz1405DEn94w-42" value="" style="edgeStyle=orthogonalEdgeStyle;rounded=0;orthogonalLoop=1;jettySize=auto;html=1;fontFamily=Helvetica;fontSize=12;fontColor=default;entryX=0.55;entryY=0.95;entryDx=0;entryDy=0;entryPerimeter=0;" parent="1" source="-YOxKYabcz1405DEn94w-39" target="-YOxKYabcz1405DEn94w-1" edge="1">
          <mxGeometry relative="1" as="geometry">
            <mxPoint x="2011" y="979" as="targetPoint" />
          </mxGeometry>
        </mxCell>
        <mxCell id="-YOxKYabcz1405DEn94w-73" value="13、Http响应" style="edgeLabel;html=1;align=center;verticalAlign=middle;resizable=0;points=[];strokeColor=default;fontFamily=Helvetica;fontSize=12;fontColor=default;fillColor=default;" parent="-YOxKYabcz1405DEn94w-42" vertex="1" connectable="0">
          <mxGeometry x="0.1387" y="1" relative="1" as="geometry">
            <mxPoint as="offset" />
          </mxGeometry>
        </mxCell>
        <mxCell id="-YOxKYabcz1405DEn94w-39" value="DataBuffer" style="whiteSpace=wrap;html=1;align=center;rounded=1;fontSize=11;" parent="1" vertex="1">
          <mxGeometry x="1985" y="949" width="120" height="60" as="geometry" />
        </mxCell>
        <mxCell id="-YOxKYabcz1405DEn94w-50" style="edgeStyle=orthogonalEdgeStyle;rounded=0;orthogonalLoop=1;jettySize=auto;html=1;entryX=0.1;entryY=0.5;entryDx=0;entryDy=0;entryPerimeter=0;fontFamily=Helvetica;fontSize=12;fontColor=default;" parent="1" source="-YOxKYabcz1405DEn94w-25" target="-YOxKYabcz1405DEn94w-28" edge="1">
          <mxGeometry relative="1" as="geometry">
            <Array as="points">
              <mxPoint x="3211" y="714" />
              <mxPoint x="3211" y="979" />
            </Array>
          </mxGeometry>
        </mxCell>
        <mxCell id="-YOxKYabcz1405DEn94w-51" value="10、匹配" style="edgeLabel;html=1;align=center;verticalAlign=middle;resizable=0;points=[];strokeColor=default;fontFamily=Helvetica;fontSize=12;fontColor=default;fillColor=default;" parent="-YOxKYabcz1405DEn94w-50" vertex="1" connectable="0">
          <mxGeometry x="-0.2006" y="2" relative="1" as="geometry">
            <mxPoint as="offset" />
          </mxGeometry>
        </mxCell>
        <mxCell id="-YOxKYabcz1405DEn94w-57" value="" style="edgeStyle=orthogonalEdgeStyle;rounded=0;orthogonalLoop=1;jettySize=auto;html=1;fontFamily=Helvetica;fontSize=12;fontColor=default;" parent="1" source="-YOxKYabcz1405DEn94w-55" target="-YOxKYabcz1405DEn94w-56" edge="1">
          <mxGeometry relative="1" as="geometry" />
        </mxCell>
        <mxCell id="-YOxKYabcz1405DEn94w-58" value="Netty Http适配到&lt;div&gt;HttpHandler&lt;/div&gt;" style="edgeLabel;html=1;align=center;verticalAlign=middle;resizable=0;points=[];strokeColor=default;fontFamily=Helvetica;fontSize=12;fontColor=default;fillColor=default;" parent="-YOxKYabcz1405DEn94w-57" vertex="1" connectable="0">
          <mxGeometry x="-0.2526" y="-1" relative="1" as="geometry">
            <mxPoint y="6" as="offset" />
          </mxGeometry>
        </mxCell>
        <mxCell id="-YOxKYabcz1405DEn94w-55" value="ReactorHttpHandlerAdapter" style="rounded=0;whiteSpace=wrap;html=1;strokeColor=default;align=center;verticalAlign=middle;fontFamily=Helvetica;fontSize=8;fontColor=default;fillColor=default;" parent="1" vertex="1">
          <mxGeometry x="1940" y="129" width="120" height="60" as="geometry" />
        </mxCell>
        <mxCell id="-YOxKYabcz1405DEn94w-60" value="" style="edgeStyle=orthogonalEdgeStyle;rounded=0;orthogonalLoop=1;jettySize=auto;html=1;fontFamily=Helvetica;fontSize=12;fontColor=default;" parent="1" source="-YOxKYabcz1405DEn94w-56" target="-YOxKYabcz1405DEn94w-59" edge="1">
          <mxGeometry relative="1" as="geometry" />
        </mxCell>
        <mxCell id="-YOxKYabcz1405DEn94w-61" value="HttpHandler适配到WebHandler&lt;div&gt;构建ServerWebExchange&lt;/div&gt;" style="edgeLabel;html=1;align=center;verticalAlign=middle;resizable=0;points=[];strokeColor=default;fontFamily=Helvetica;fontSize=12;fontColor=default;fillColor=default;" parent="-YOxKYabcz1405DEn94w-60" vertex="1" connectable="0">
          <mxGeometry x="-0.1474" y="4" relative="1" as="geometry">
            <mxPoint as="offset" />
          </mxGeometry>
        </mxCell>
        <mxCell id="-YOxKYabcz1405DEn94w-56" value="HttpWebHandlerAdapter" style="rounded=0;whiteSpace=wrap;html=1;strokeColor=default;align=center;verticalAlign=middle;fontFamily=Helvetica;fontSize=8;fontColor=default;fillColor=default;" parent="1" vertex="1">
          <mxGeometry x="1940" y="283" width="120" height="60" as="geometry" />
        </mxCell>
        <mxCell id="-YOxKYabcz1405DEn94w-70" style="edgeStyle=orthogonalEdgeStyle;rounded=0;orthogonalLoop=1;jettySize=auto;html=1;exitX=0.5;exitY=1;exitDx=0;exitDy=0;entryX=0.5;entryY=0;entryDx=0;entryDy=0;fontFamily=Helvetica;fontSize=12;fontColor=default;" parent="1" source="-YOxKYabcz1405DEn94w-59" target="-YOxKYabcz1405DEn94w-65" edge="1">
          <mxGeometry relative="1" as="geometry" />
        </mxCell>
        <mxCell id="-YOxKYabcz1405DEn94w-71" value="异常拦截处理" style="edgeLabel;html=1;align=center;verticalAlign=middle;resizable=0;points=[];strokeColor=default;fontFamily=Helvetica;fontSize=12;fontColor=default;fillColor=default;" parent="-YOxKYabcz1405DEn94w-70" vertex="1" connectable="0">
          <mxGeometry x="-0.2586" y="-2" relative="1" as="geometry">
            <mxPoint y="2" as="offset" />
          </mxGeometry>
        </mxCell>
        <mxCell id="-YOxKYabcz1405DEn94w-59" value="ExceptionHandlingWebHandler" style="rounded=0;whiteSpace=wrap;html=1;strokeColor=default;align=center;verticalAlign=middle;fontFamily=Helvetica;fontSize=8;fontColor=default;fillColor=default;" parent="1" vertex="1">
          <mxGeometry x="1940" y="452" width="120" height="60" as="geometry" />
        </mxCell>
        <mxCell id="-YOxKYabcz1405DEn94w-67" style="edgeStyle=orthogonalEdgeStyle;rounded=0;orthogonalLoop=1;jettySize=auto;html=1;exitX=1;exitY=0.5;exitDx=0;exitDy=0;entryX=0;entryY=0.5;entryDx=0;entryDy=0;fontFamily=Helvetica;fontSize=12;fontColor=default;" parent="1" source="-YOxKYabcz1405DEn94w-65" target="-YOxKYabcz1405DEn94w-4" edge="1">
          <mxGeometry relative="1" as="geometry" />
        </mxCell>
        <mxCell id="-YOxKYabcz1405DEn94w-72" value="执行WebFilter链" style="edgeLabel;html=1;align=center;verticalAlign=middle;resizable=0;points=[];strokeColor=default;fontFamily=Helvetica;fontSize=12;fontColor=default;fillColor=default;" parent="-YOxKYabcz1405DEn94w-67" vertex="1" connectable="0">
          <mxGeometry x="-0.0071" relative="1" as="geometry">
            <mxPoint as="offset" />
          </mxGeometry>
        </mxCell>
        <mxCell id="-YOxKYabcz1405DEn94w-65" value="FilteringWebHandler" style="rounded=0;whiteSpace=wrap;html=1;strokeColor=default;align=center;verticalAlign=middle;fontFamily=Helvetica;fontSize=8;fontColor=default;fillColor=default;" parent="1" vertex="1">
          <mxGeometry x="1940" y="581" width="120" height="60" as="geometry" />
        </mxCell>
      </root>
    </mxGraphModel>
  </diagram>
  <diagram id="2L3fTB3tKjh_pXxrauPM" name="SpringCloudGateway">
    <mxGraphModel dx="-220" dy="844" grid="1" gridSize="10" guides="1" tooltips="1" connect="1" arrows="1" fold="1" page="1" pageScale="1" pageWidth="827" pageHeight="1169" math="0" shadow="0">
      <root>
        <mxCell id="0" />
        <mxCell id="1" parent="0" />
        <mxCell id="BT95OJDJH4jNiPTxr1p8-2" value="&lt;div style=&quot;font-weight: 700; text-wrap: nowrap;&quot;&gt;&lt;font style=&quot;font-size: 20px;&quot; color=&quot;#00cc00&quot;&gt;Spring Cloud Gateway&lt;/font&gt;&lt;/div&gt;&lt;span style=&quot;text-wrap: nowrap;&quot;&gt;&lt;font style=&quot;font-size: 20px;&quot; color=&quot;#999999&quot;&gt;Netty Server&lt;/font&gt;&lt;/span&gt;" style="text;html=1;align=center;verticalAlign=top;whiteSpace=wrap;rounded=0;fontFamily=Helvetica;fontSize=12;horizontal=1;strokeColor=#82b366;dashed=1;dashPattern=12 12;fillColor=#d5e8d4;" parent="1" vertex="1">
          <mxGeometry x="1860" y="50" width="1390" height="1070" as="geometry" />
        </mxCell>
        <mxCell id="4RMhbuVmhxNOeodAHc1t-2" style="edgeStyle=orthogonalEdgeStyle;rounded=0;orthogonalLoop=1;jettySize=auto;html=1;exitX=0.875;exitY=0.5;exitDx=0;exitDy=0;exitPerimeter=0;entryX=0;entryY=0.5;entryDx=0;entryDy=0;fontFamily=Helvetica;fontSize=12;fontColor=default;" parent="1" source="4RMhbuVmhxNOeodAHc1t-4" target="4RMhbuVmhxNOeodAHc1t-46" edge="1">
          <mxGeometry relative="1" as="geometry">
            <Array as="points">
              <mxPoint x="1820" y="411" />
              <mxPoint x="1820" y="86" />
            </Array>
          </mxGeometry>
        </mxCell>
        <mxCell id="4RMhbuVmhxNOeodAHc1t-3" value="1、Http请求" style="edgeLabel;html=1;align=center;verticalAlign=middle;resizable=0;points=[];strokeColor=default;fontFamily=Helvetica;fontSize=12;fontColor=default;fillColor=default;" parent="4RMhbuVmhxNOeodAHc1t-2" vertex="1" connectable="0">
          <mxGeometry x="0.1291" y="1" relative="1" as="geometry">
            <mxPoint y="47" as="offset" />
          </mxGeometry>
        </mxCell>
        <mxCell id="4RMhbuVmhxNOeodAHc1t-4" value="Client" style="ellipse;shape=cloud;whiteSpace=wrap;html=1;fillColor=#66B2FF;" parent="1" vertex="1">
          <mxGeometry x="1670" y="371" width="120" height="80" as="geometry" />
        </mxCell>
        <mxCell id="4RMhbuVmhxNOeodAHc1t-5" value="" style="edgeStyle=orthogonalEdgeStyle;rounded=0;orthogonalLoop=1;jettySize=auto;html=1;" parent="1" source="4RMhbuVmhxNOeodAHc1t-9" target="4RMhbuVmhxNOeodAHc1t-10" edge="1">
          <mxGeometry relative="1" as="geometry" />
        </mxCell>
        <mxCell id="4RMhbuVmhxNOeodAHc1t-6" value="2、通过路劲匹配Route统一返回&lt;div&gt;&lt;span style=&quot;font-size: 12px;&quot;&gt;FilteringWebHandler&lt;/span&gt;&lt;br&gt;&lt;/div&gt;" style="edgeLabel;html=1;align=center;verticalAlign=middle;resizable=0;points=[];" parent="4RMhbuVmhxNOeodAHc1t-5" vertex="1" connectable="0">
          <mxGeometry x="-0.1286" y="1" relative="1" as="geometry">
            <mxPoint as="offset" />
          </mxGeometry>
        </mxCell>
        <mxCell id="4RMhbuVmhxNOeodAHc1t-7" style="edgeStyle=orthogonalEdgeStyle;rounded=0;orthogonalLoop=1;jettySize=auto;html=1;entryX=0;entryY=0.5;entryDx=0;entryDy=0;exitX=0.5;exitY=0;exitDx=0;exitDy=0;" parent="1" source="4RMhbuVmhxNOeodAHc1t-9" target="4RMhbuVmhxNOeodAHc1t-18" edge="1">
          <mxGeometry relative="1" as="geometry" />
        </mxCell>
        <mxCell id="4RMhbuVmhxNOeodAHc1t-8" value="4、根据FilteringWebHandler寻找&lt;div&gt;HandlerAdapter&lt;/div&gt;" style="edgeLabel;html=1;align=center;verticalAlign=middle;resizable=0;points=[];strokeColor=default;fontFamily=Helvetica;fontSize=12;fontColor=default;fillColor=default;" parent="4RMhbuVmhxNOeodAHc1t-7" vertex="1" connectable="0">
          <mxGeometry x="-0.0916" y="1" relative="1" as="geometry">
            <mxPoint as="offset" />
          </mxGeometry>
        </mxCell>
        <mxCell id="4RMhbuVmhxNOeodAHc1t-9" value="DispatcherHandler" style="whiteSpace=wrap;html=1;" parent="1" vertex="1">
          <mxGeometry x="2178" y="508" width="120" height="60" as="geometry" />
        </mxCell>
        <mxCell id="4RMhbuVmhxNOeodAHc1t-10" value="&lt;font style=&quot;font-size: 8px;&quot;&gt;RoutePredicateHandlerMapping&lt;/font&gt;&lt;div&gt;&lt;font style=&quot;&quot;&gt;#lookupRoute&lt;br&gt;&lt;/font&gt;&lt;/div&gt;" style="whiteSpace=wrap;html=1;fontStyle=0;fontSize=8;" parent="1" vertex="1">
          <mxGeometry x="2178" y="648" width="120" height="60" as="geometry" />
        </mxCell>
        <mxCell id="ja8EcCSImnejtaZvBAro-2" value="" style="edgeStyle=orthogonalEdgeStyle;rounded=0;orthogonalLoop=1;jettySize=auto;html=1;fontFamily=Helvetica;fontSize=12;fontColor=default;" parent="1" source="4RMhbuVmhxNOeodAHc1t-13" target="ja8EcCSImnejtaZvBAro-1" edge="1">
          <mxGeometry relative="1" as="geometry" />
        </mxCell>
        <mxCell id="ja8EcCSImnejtaZvBAro-3" value="RouteDefinitionRouteLocator" style="edgeLabel;html=1;align=center;verticalAlign=middle;resizable=0;points=[];strokeColor=default;fontFamily=Helvetica;fontSize=12;fontColor=default;fillColor=default;horizontal=0;" parent="ja8EcCSImnejtaZvBAro-2" vertex="1" connectable="0">
          <mxGeometry x="-0.0375" y="1" relative="1" as="geometry">
            <mxPoint as="offset" />
          </mxGeometry>
        </mxCell>
        <mxCell id="4RMhbuVmhxNOeodAHc1t-13" value="RouteLocator" style="ellipse;whiteSpace=wrap;html=1;" parent="1" vertex="1">
          <mxGeometry x="2433" y="591" width="120" height="80" as="geometry" />
        </mxCell>
        <mxCell id="4RMhbuVmhxNOeodAHc1t-14" style="edgeStyle=orthogonalEdgeStyle;rounded=0;orthogonalLoop=1;jettySize=auto;html=1;entryX=0;entryY=0.5;entryDx=0;entryDy=0;" parent="1" source="4RMhbuVmhxNOeodAHc1t-10" target="4RMhbuVmhxNOeodAHc1t-13" edge="1">
          <mxGeometry relative="1" as="geometry" />
        </mxCell>
        <mxCell id="4RMhbuVmhxNOeodAHc1t-15" value="3、匹配Route&lt;div style=&quot;font-size: 9px;&quot;&gt;通过Route的AsyncPredicate判定&lt;/div&gt;" style="edgeLabel;html=1;align=center;verticalAlign=middle;resizable=0;points=[];strokeColor=default;fontFamily=Helvetica;fontSize=9;fontColor=default;fillColor=default;" parent="4RMhbuVmhxNOeodAHc1t-14" vertex="1" connectable="0">
          <mxGeometry x="-0.1279" relative="1" as="geometry">
            <mxPoint x="5" y="-4" as="offset" />
          </mxGeometry>
        </mxCell>
        <mxCell id="4RMhbuVmhxNOeodAHc1t-16" value="" style="edgeStyle=orthogonalEdgeStyle;rounded=0;orthogonalLoop=1;jettySize=auto;html=1;fontFamily=Helvetica;fontSize=12;fontColor=default;" parent="1" source="4RMhbuVmhxNOeodAHc1t-18" target="4RMhbuVmhxNOeodAHc1t-23" edge="1">
          <mxGeometry relative="1" as="geometry" />
        </mxCell>
        <mxCell id="4RMhbuVmhxNOeodAHc1t-17" value="5、适配调用FilteringWebHandler" style="edgeLabel;html=1;align=center;verticalAlign=middle;resizable=0;points=[];strokeColor=default;fontFamily=Helvetica;fontSize=12;fontColor=default;fillColor=default;" parent="4RMhbuVmhxNOeodAHc1t-16" vertex="1" connectable="0">
          <mxGeometry x="-0.3458" y="2" relative="1" as="geometry">
            <mxPoint as="offset" />
          </mxGeometry>
        </mxCell>
        <mxCell id="4RMhbuVmhxNOeodAHc1t-18" value="&lt;font style=&quot;font-size: 11px;&quot;&gt;SimpleHandlerAdapter&lt;/font&gt;" style="whiteSpace=wrap;html=1;verticalAlign=middle;horizontal=1;fontSize=11;" parent="1" vertex="1">
          <mxGeometry x="2423" y="391" width="120" height="60" as="geometry" />
        </mxCell>
        <mxCell id="4RMhbuVmhxNOeodAHc1t-21" value="" style="edgeStyle=orthogonalEdgeStyle;rounded=0;orthogonalLoop=1;jettySize=auto;html=1;fontFamily=Helvetica;fontSize=12;fontColor=default;" parent="1" source="4RMhbuVmhxNOeodAHc1t-23" target="4RMhbuVmhxNOeodAHc1t-27" edge="1">
          <mxGeometry relative="1" as="geometry" />
        </mxCell>
        <mxCell id="4RMhbuVmhxNOeodAHc1t-22" value="6、GlobalFilter和Route中GatewayFilter合并优先级排序" style="edgeLabel;html=1;align=center;verticalAlign=middle;resizable=0;points=[];strokeColor=default;fontFamily=Helvetica;fontSize=12;fontColor=default;fillColor=default;" parent="4RMhbuVmhxNOeodAHc1t-21" vertex="1" connectable="0">
          <mxGeometry x="-0.32" y="1" relative="1" as="geometry">
            <mxPoint x="55" y="83" as="offset" />
          </mxGeometry>
        </mxCell>
        <mxCell id="4RMhbuVmhxNOeodAHc1t-23" value="&lt;pre style=&quot;background-color: rgb(255, 255, 255); font-family: Consolas; font-size: 10px;&quot;&gt;FilteringWebHandler&lt;/pre&gt;" style="whiteSpace=wrap;html=1;fontSize=10;" parent="1" vertex="1">
          <mxGeometry x="2713" y="508" width="120" height="60" as="geometry" />
        </mxCell>
        <mxCell id="4RMhbuVmhxNOeodAHc1t-27" value="&lt;pre style=&quot;background-color: rgb(255, 255, 255); font-family: Consolas; font-size: 8px;&quot;&gt;DefaultGatewayFilterChain&lt;/pre&gt;" style="whiteSpace=wrap;html=1;fontSize=8;" parent="1" vertex="1">
          <mxGeometry x="2901.5" y="700" width="120" height="60" as="geometry" />
        </mxCell>
        <mxCell id="6BlMGuFikLO0LmbPYViE-2" style="edgeStyle=orthogonalEdgeStyle;rounded=0;orthogonalLoop=1;jettySize=auto;html=1;exitX=0;exitY=0.5;exitDx=0;exitDy=0;entryX=1;entryY=0.5;entryDx=0;entryDy=0;fontFamily=Helvetica;fontSize=12;fontColor=default;" parent="1" source="4RMhbuVmhxNOeodAHc1t-38" target="6BlMGuFikLO0LmbPYViE-1" edge="1">
          <mxGeometry relative="1" as="geometry" />
        </mxCell>
        <mxCell id="yehGk1UZDX3Z7tjIBy30-1" value="写入" style="edgeLabel;html=1;align=center;verticalAlign=middle;resizable=0;points=[];strokeColor=default;fontFamily=Helvetica;fontSize=12;fontColor=default;fillColor=default;" parent="6BlMGuFikLO0LmbPYViE-2" vertex="1" connectable="0">
          <mxGeometry x="0.0769" y="-1" relative="1" as="geometry">
            <mxPoint as="offset" />
          </mxGeometry>
        </mxCell>
        <mxCell id="4RMhbuVmhxNOeodAHc1t-38" value="ServerHttpResponse" style="whiteSpace=wrap;html=1;align=center;rounded=1;fontSize=11;" parent="1" vertex="1">
          <mxGeometry x="2116" y="1051" width="120" height="60" as="geometry" />
        </mxCell>
        <mxCell id="4RMhbuVmhxNOeodAHc1t-44" value="" style="edgeStyle=orthogonalEdgeStyle;rounded=0;orthogonalLoop=1;jettySize=auto;html=1;fontFamily=Helvetica;fontSize=12;fontColor=default;" parent="1" source="4RMhbuVmhxNOeodAHc1t-46" target="4RMhbuVmhxNOeodAHc1t-49" edge="1">
          <mxGeometry relative="1" as="geometry" />
        </mxCell>
        <mxCell id="4RMhbuVmhxNOeodAHc1t-45" value="Netty Http适配到&lt;div&gt;HttpHandler&lt;/div&gt;" style="edgeLabel;html=1;align=center;verticalAlign=middle;resizable=0;points=[];strokeColor=default;fontFamily=Helvetica;fontSize=12;fontColor=default;fillColor=default;" parent="4RMhbuVmhxNOeodAHc1t-44" vertex="1" connectable="0">
          <mxGeometry x="-0.2526" y="-1" relative="1" as="geometry">
            <mxPoint y="6" as="offset" />
          </mxGeometry>
        </mxCell>
        <mxCell id="4RMhbuVmhxNOeodAHc1t-46" value="ReactorHttpHandlerAdapter" style="rounded=0;whiteSpace=wrap;html=1;strokeColor=default;align=center;verticalAlign=middle;fontFamily=Helvetica;fontSize=8;fontColor=default;fillColor=default;" parent="1" vertex="1">
          <mxGeometry x="1940" y="56" width="120" height="60" as="geometry" />
        </mxCell>
        <mxCell id="4RMhbuVmhxNOeodAHc1t-47" value="" style="edgeStyle=orthogonalEdgeStyle;rounded=0;orthogonalLoop=1;jettySize=auto;html=1;fontFamily=Helvetica;fontSize=12;fontColor=default;" parent="1" source="4RMhbuVmhxNOeodAHc1t-49" target="4RMhbuVmhxNOeodAHc1t-52" edge="1">
          <mxGeometry relative="1" as="geometry" />
        </mxCell>
        <mxCell id="4RMhbuVmhxNOeodAHc1t-48" value="HttpHandler适配到WebHandler&lt;div&gt;构建ServerWebExchange&lt;/div&gt;" style="edgeLabel;html=1;align=center;verticalAlign=middle;resizable=0;points=[];strokeColor=default;fontFamily=Helvetica;fontSize=12;fontColor=default;fillColor=default;" parent="4RMhbuVmhxNOeodAHc1t-47" vertex="1" connectable="0">
          <mxGeometry x="-0.1474" y="4" relative="1" as="geometry">
            <mxPoint as="offset" />
          </mxGeometry>
        </mxCell>
        <mxCell id="4RMhbuVmhxNOeodAHc1t-49" value="HttpWebHandlerAdapter" style="rounded=0;whiteSpace=wrap;html=1;strokeColor=default;align=center;verticalAlign=middle;fontFamily=Helvetica;fontSize=8;fontColor=default;fillColor=default;" parent="1" vertex="1">
          <mxGeometry x="1940" y="210" width="120" height="60" as="geometry" />
        </mxCell>
        <mxCell id="4RMhbuVmhxNOeodAHc1t-50" style="edgeStyle=orthogonalEdgeStyle;rounded=0;orthogonalLoop=1;jettySize=auto;html=1;exitX=0.5;exitY=1;exitDx=0;exitDy=0;entryX=0.5;entryY=0;entryDx=0;entryDy=0;fontFamily=Helvetica;fontSize=12;fontColor=default;" parent="1" source="4RMhbuVmhxNOeodAHc1t-52" target="4RMhbuVmhxNOeodAHc1t-55" edge="1">
          <mxGeometry relative="1" as="geometry" />
        </mxCell>
        <mxCell id="4RMhbuVmhxNOeodAHc1t-51" value="异常拦截处理" style="edgeLabel;html=1;align=center;verticalAlign=middle;resizable=0;points=[];strokeColor=default;fontFamily=Helvetica;fontSize=12;fontColor=default;fillColor=default;" parent="4RMhbuVmhxNOeodAHc1t-50" vertex="1" connectable="0">
          <mxGeometry x="-0.2586" y="-2" relative="1" as="geometry">
            <mxPoint y="2" as="offset" />
          </mxGeometry>
        </mxCell>
        <mxCell id="4RMhbuVmhxNOeodAHc1t-52" value="ExceptionHandlingWebHandler" style="rounded=0;whiteSpace=wrap;html=1;strokeColor=default;align=center;verticalAlign=middle;fontFamily=Helvetica;fontSize=8;fontColor=default;fillColor=default;" parent="1" vertex="1">
          <mxGeometry x="1940" y="379" width="120" height="60" as="geometry" />
        </mxCell>
        <mxCell id="4RMhbuVmhxNOeodAHc1t-53" style="edgeStyle=orthogonalEdgeStyle;rounded=0;orthogonalLoop=1;jettySize=auto;html=1;exitX=1;exitY=0.5;exitDx=0;exitDy=0;entryX=0;entryY=0.5;entryDx=0;entryDy=0;fontFamily=Helvetica;fontSize=12;fontColor=default;" parent="1" source="4RMhbuVmhxNOeodAHc1t-55" target="4RMhbuVmhxNOeodAHc1t-9" edge="1">
          <mxGeometry relative="1" as="geometry" />
        </mxCell>
        <mxCell id="4RMhbuVmhxNOeodAHc1t-54" value="执行WebFilter链" style="edgeLabel;html=1;align=center;verticalAlign=middle;resizable=0;points=[];strokeColor=default;fontFamily=Helvetica;fontSize=12;fontColor=default;fillColor=default;" parent="4RMhbuVmhxNOeodAHc1t-53" vertex="1" connectable="0">
          <mxGeometry x="-0.0071" relative="1" as="geometry">
            <mxPoint as="offset" />
          </mxGeometry>
        </mxCell>
        <mxCell id="4RMhbuVmhxNOeodAHc1t-55" value="FilteringWebHandler" style="rounded=0;whiteSpace=wrap;html=1;strokeColor=default;align=center;verticalAlign=middle;fontFamily=Helvetica;fontSize=8;fontColor=default;fillColor=default;" parent="1" vertex="1">
          <mxGeometry x="1940" y="508" width="120" height="60" as="geometry" />
        </mxCell>
        <mxCell id="ja8EcCSImnejtaZvBAro-1" value="路由配置" style="ellipse;whiteSpace=wrap;html=1;" parent="1" vertex="1">
          <mxGeometry x="2713" y="590" width="80" height="80" as="geometry" />
        </mxCell>
        <mxCell id="ja8EcCSImnejtaZvBAro-4" value="&lt;span style=&quot;color: rgb(51, 51, 51); font-family: Menlo, Monaco, Consolas, &amp;quot;Courier New&amp;quot;, monospace; text-align: start; white-space: pre; background-color: rgb(248, 248, 248);&quot;&gt;1、RemoveCachedBodyFilter&lt;/span&gt;" style="rounded=0;whiteSpace=wrap;html=1;strokeColor=default;align=center;verticalAlign=middle;fontFamily=Helvetica;fontSize=12;fontColor=default;fillColor=default;direction=south;horizontal=0;textDirection=ltr;" parent="1" vertex="1">
          <mxGeometry x="2275" y="861" width="40" height="184" as="geometry" />
        </mxCell>
        <mxCell id="ja8EcCSImnejtaZvBAro-16" value="&lt;span style=&quot;color: rgb(51, 51, 51); font-family: Menlo, Monaco, Consolas, &amp;quot;Courier New&amp;quot;, monospace; text-align: start; white-space: pre; background-color: rgb(248, 248, 248);&quot;&gt;AdaptCachedBodyGlobalFilter&lt;/span&gt;" style="rounded=0;whiteSpace=wrap;html=1;strokeColor=default;align=center;verticalAlign=middle;fontFamily=Helvetica;fontSize=12;fontColor=default;fillColor=default;direction=south;horizontal=0;textDirection=ltr;" parent="1" vertex="1">
          <mxGeometry x="2348" y="861" width="40" height="184" as="geometry" />
        </mxCell>
        <mxCell id="ja8EcCSImnejtaZvBAro-18" value="&lt;span style=&quot;color: rgb(51, 51, 51); font-family: Menlo, Monaco, Consolas, &amp;quot;Courier New&amp;quot;, monospace; text-align: start; white-space: pre; background-color: rgb(248, 248, 248);&quot;&gt;NettyWriteResponseFilter&lt;/span&gt;" style="rounded=0;whiteSpace=wrap;html=1;strokeColor=default;align=center;verticalAlign=middle;fontFamily=Helvetica;fontSize=12;fontColor=default;fillColor=default;direction=south;horizontal=0;textDirection=ltr;" parent="1" vertex="1">
          <mxGeometry x="2425" y="861" width="40" height="184" as="geometry" />
        </mxCell>
        <mxCell id="ja8EcCSImnejtaZvBAro-20" value="&lt;span style=&quot;color: rgb(51, 51, 51); font-family: Menlo, Monaco, Consolas, &amp;quot;Courier New&amp;quot;, monospace; text-align: start; white-space: pre; background-color: rgb(248, 248, 248);&quot;&gt;ForwardPathFilter&lt;/span&gt;" style="rounded=0;whiteSpace=wrap;html=1;strokeColor=default;align=center;verticalAlign=middle;fontFamily=Helvetica;fontSize=12;fontColor=default;fillColor=default;direction=south;horizontal=0;textDirection=ltr;" parent="1" vertex="1">
          <mxGeometry x="2487" y="861" width="40" height="184" as="geometry" />
        </mxCell>
        <mxCell id="ja8EcCSImnejtaZvBAro-22" value="&lt;span style=&quot;color: rgb(51, 51, 51); font-family: Menlo, Monaco, Consolas, &amp;quot;Courier New&amp;quot;, monospace; text-align: start; white-space: pre; background-color: rgb(248, 248, 248);&quot;&gt;GatewayMetricsFilter&lt;/span&gt;" style="rounded=0;whiteSpace=wrap;html=1;strokeColor=default;align=center;verticalAlign=middle;fontFamily=Helvetica;fontSize=12;fontColor=default;fillColor=default;direction=south;horizontal=0;textDirection=ltr;" parent="1" vertex="1">
          <mxGeometry x="2550" y="861" width="40" height="184" as="geometry" />
        </mxCell>
        <mxCell id="ja8EcCSImnejtaZvBAro-24" value="&lt;span style=&quot;color: rgb(51, 51, 51); font-family: Menlo, Monaco, Consolas, &amp;quot;Courier New&amp;quot;, monospace; text-align: start; white-space: pre; background-color: rgb(248, 248, 248); font-size: 7px;&quot;&gt;AddRequestParameterGatewayFilterFactory&lt;/span&gt;" style="rounded=0;whiteSpace=wrap;html=1;strokeColor=default;align=center;verticalAlign=middle;fontFamily=Helvetica;fontSize=7;fontColor=default;fillColor=default;direction=south;horizontal=0;textDirection=ltr;" parent="1" vertex="1">
          <mxGeometry x="2623" y="861" width="40" height="184" as="geometry" />
        </mxCell>
        <mxCell id="ja8EcCSImnejtaZvBAro-26" value="&lt;span style=&quot;color: rgb(51, 51, 51); font-family: Menlo, Monaco, Consolas, &amp;quot;Courier New&amp;quot;, monospace; font-size: 8px; text-align: start; white-space: pre; background-color: rgb(248, 248, 248);&quot;&gt;AddResponseHeaderGatewayFilterFactory&lt;/span&gt;" style="rounded=0;whiteSpace=wrap;html=1;strokeColor=default;align=center;verticalAlign=middle;fontFamily=Helvetica;fontSize=8;fontColor=default;fillColor=default;direction=south;horizontal=0;textDirection=ltr;" parent="1" vertex="1">
          <mxGeometry x="2685" y="861" width="40" height="184" as="geometry" />
        </mxCell>
        <mxCell id="ja8EcCSImnejtaZvBAro-28" value="&lt;span style=&quot;color: rgb(51, 51, 51); font-family: Menlo, Monaco, Consolas, &amp;quot;Courier New&amp;quot;, monospace; font-size: 12px; text-align: start; white-space: pre; background-color: rgb(248, 248, 248);&quot;&gt;RouteToRequestUrlFilter&lt;/span&gt;" style="rounded=0;whiteSpace=wrap;html=1;strokeColor=default;align=center;verticalAlign=middle;fontFamily=Helvetica;fontSize=8;fontColor=default;fillColor=default;direction=south;horizontal=0;textDirection=ltr;" parent="1" vertex="1">
          <mxGeometry x="2758" y="861" width="40" height="184" as="geometry" />
        </mxCell>
        <mxCell id="ja8EcCSImnejtaZvBAro-30" value="&lt;span style=&quot;color: rgb(51, 51, 51); font-family: Menlo, Monaco, Consolas, &amp;quot;Courier New&amp;quot;, monospace; font-size: 12px; text-align: start; white-space: pre; background-color: rgb(248, 248, 248);&quot;&gt;LoadBalancerClientFilter&lt;/span&gt;" style="rounded=0;whiteSpace=wrap;html=1;strokeColor=#2D7600;align=center;verticalAlign=middle;fontFamily=Helvetica;fontSize=8;fontColor=#ffffff;fillColor=#60a917;direction=south;horizontal=0;textDirection=ltr;" parent="1" vertex="1">
          <mxGeometry x="2826.5" y="861" width="40" height="184" as="geometry" />
        </mxCell>
        <mxCell id="ja8EcCSImnejtaZvBAro-32" value="&lt;span style=&quot;color: rgb(51, 51, 51); font-family: Menlo, Monaco, Consolas, &amp;quot;Courier New&amp;quot;, monospace; font-size: 12px; text-align: start; white-space: pre; background-color: rgb(248, 248, 248);&quot;&gt;WebsocketRoutingFilter&lt;/span&gt;" style="rounded=0;whiteSpace=wrap;html=1;strokeColor=default;align=center;verticalAlign=middle;fontFamily=Helvetica;fontSize=8;fontColor=default;fillColor=default;direction=south;horizontal=0;textDirection=ltr;" parent="1" vertex="1">
          <mxGeometry x="2900" y="861" width="40" height="184" as="geometry" />
        </mxCell>
        <mxCell id="ja8EcCSImnejtaZvBAro-62" style="edgeStyle=orthogonalEdgeStyle;rounded=0;orthogonalLoop=1;jettySize=auto;html=1;exitX=0.5;exitY=0;exitDx=0;exitDy=0;entryX=0;entryY=0.5;entryDx=0;entryDy=0;fontFamily=Helvetica;fontSize=12;fontColor=default;" parent="1" source="ja8EcCSImnejtaZvBAro-34" target="ja8EcCSImnejtaZvBAro-61" edge="1">
          <mxGeometry relative="1" as="geometry" />
        </mxCell>
        <mxCell id="ja8EcCSImnejtaZvBAro-63" value="Netty Client" style="edgeLabel;html=1;align=center;verticalAlign=middle;resizable=0;points=[];strokeColor=default;fontFamily=Helvetica;fontSize=12;fontColor=default;fillColor=default;" parent="ja8EcCSImnejtaZvBAro-62" vertex="1" connectable="0">
          <mxGeometry x="-0.102" y="-2" relative="1" as="geometry">
            <mxPoint as="offset" />
          </mxGeometry>
        </mxCell>
        <mxCell id="ja8EcCSImnejtaZvBAro-34" value="&lt;span style=&quot;color: rgb(51, 51, 51); font-family: Menlo, Monaco, Consolas, &amp;quot;Courier New&amp;quot;, monospace; font-size: 12px; text-align: start; white-space: pre; background-color: rgb(248, 248, 248);&quot;&gt;NettyRoutingFilter&lt;/span&gt;" style="rounded=0;whiteSpace=wrap;html=1;strokeColor=#9673a6;align=center;verticalAlign=middle;fontFamily=Helvetica;fontSize=8;fillColor=#e1d5e7;direction=south;horizontal=0;textDirection=ltr;" parent="1" vertex="1">
          <mxGeometry x="2974" y="861" width="40" height="184" as="geometry" />
        </mxCell>
        <mxCell id="ja8EcCSImnejtaZvBAro-36" value="&lt;span style=&quot;color: rgb(51, 51, 51); font-family: Menlo, Monaco, Consolas, &amp;quot;Courier New&amp;quot;, monospace; font-size: 12px; text-align: start; white-space: pre; background-color: rgb(248, 248, 248);&quot;&gt;ForwardRoutingFilter&lt;/span&gt;" style="rounded=0;whiteSpace=wrap;html=1;strokeColor=default;align=center;verticalAlign=middle;fontFamily=Helvetica;fontSize=8;fontColor=default;fillColor=default;direction=south;horizontal=0;textDirection=ltr;" parent="1" vertex="1">
          <mxGeometry x="3080" y="734" width="40" height="184" as="geometry" />
        </mxCell>
        <mxCell id="ja8EcCSImnejtaZvBAro-46" value="" style="endArrow=classic;html=1;rounded=0;fontFamily=Helvetica;fontSize=12;fontColor=default;entryX=0.002;entryY=0.361;entryDx=0;entryDy=0;entryPerimeter=0;" parent="1" edge="1">
          <mxGeometry width="50" height="50" relative="1" as="geometry">
            <mxPoint x="2993" y="840" as="sourcePoint" />
            <mxPoint x="2992.56" y="861.3679999999999" as="targetPoint" />
          </mxGeometry>
        </mxCell>
        <mxCell id="ja8EcCSImnejtaZvBAro-48" value="" style="endArrow=classic;html=1;rounded=0;fontFamily=Helvetica;fontSize=12;fontColor=default;entryX=0.002;entryY=0.361;entryDx=0;entryDy=0;entryPerimeter=0;" parent="1" edge="1">
          <mxGeometry width="50" height="50" relative="1" as="geometry">
            <mxPoint x="2920" y="841" as="sourcePoint" />
            <mxPoint x="2919.56" y="862.3679999999999" as="targetPoint" />
          </mxGeometry>
        </mxCell>
        <mxCell id="ja8EcCSImnejtaZvBAro-51" value="" style="endArrow=classic;startArrow=classic;html=1;rounded=0;fontFamily=Helvetica;fontSize=12;fontColor=default;" parent="1" edge="1">
          <mxGeometry width="50" height="50" relative="1" as="geometry">
            <mxPoint x="2297" y="860" as="sourcePoint" />
            <mxPoint x="3080" y="840" as="targetPoint" />
            <Array as="points">
              <mxPoint x="2297" y="840" />
              <mxPoint x="2477" y="840" />
              <mxPoint x="2667" y="840" />
            </Array>
          </mxGeometry>
        </mxCell>
        <mxCell id="ja8EcCSImnejtaZvBAro-52" value="" style="endArrow=classic;html=1;rounded=0;fontFamily=Helvetica;fontSize=12;fontColor=default;entryX=0.002;entryY=0.361;entryDx=0;entryDy=0;entryPerimeter=0;" parent="1" edge="1">
          <mxGeometry width="50" height="50" relative="1" as="geometry">
            <mxPoint x="2369" y="840" as="sourcePoint" />
            <mxPoint x="2368.56" y="861.3679999999999" as="targetPoint" />
          </mxGeometry>
        </mxCell>
        <mxCell id="ja8EcCSImnejtaZvBAro-53" value="" style="endArrow=classic;html=1;rounded=0;fontFamily=Helvetica;fontSize=12;fontColor=default;entryX=0.002;entryY=0.361;entryDx=0;entryDy=0;entryPerimeter=0;" parent="1" edge="1">
          <mxGeometry width="50" height="50" relative="1" as="geometry">
            <mxPoint x="2446" y="840" as="sourcePoint" />
            <mxPoint x="2445.56" y="861.3679999999999" as="targetPoint" />
          </mxGeometry>
        </mxCell>
        <mxCell id="ja8EcCSImnejtaZvBAro-54" value="" style="endArrow=classic;html=1;rounded=0;fontFamily=Helvetica;fontSize=12;fontColor=default;entryX=0.002;entryY=0.361;entryDx=0;entryDy=0;entryPerimeter=0;" parent="1" edge="1">
          <mxGeometry width="50" height="50" relative="1" as="geometry">
            <mxPoint x="2506" y="840" as="sourcePoint" />
            <mxPoint x="2505.56" y="861.3679999999999" as="targetPoint" />
          </mxGeometry>
        </mxCell>
        <mxCell id="ja8EcCSImnejtaZvBAro-55" value="" style="endArrow=classic;html=1;rounded=0;fontFamily=Helvetica;fontSize=12;fontColor=default;entryX=0.002;entryY=0.361;entryDx=0;entryDy=0;entryPerimeter=0;" parent="1" edge="1">
          <mxGeometry width="50" height="50" relative="1" as="geometry">
            <mxPoint x="2570" y="840" as="sourcePoint" />
            <mxPoint x="2569.56" y="861.3679999999999" as="targetPoint" />
          </mxGeometry>
        </mxCell>
        <mxCell id="ja8EcCSImnejtaZvBAro-56" value="" style="endArrow=classic;html=1;rounded=0;fontFamily=Helvetica;fontSize=12;fontColor=default;entryX=0.002;entryY=0.361;entryDx=0;entryDy=0;entryPerimeter=0;" parent="1" edge="1">
          <mxGeometry width="50" height="50" relative="1" as="geometry">
            <mxPoint x="2643" y="840" as="sourcePoint" />
            <mxPoint x="2642.56" y="861.3679999999999" as="targetPoint" />
          </mxGeometry>
        </mxCell>
        <mxCell id="ja8EcCSImnejtaZvBAro-57" value="" style="endArrow=classic;html=1;rounded=0;fontFamily=Helvetica;fontSize=12;fontColor=default;entryX=0.002;entryY=0.361;entryDx=0;entryDy=0;entryPerimeter=0;" parent="1" edge="1">
          <mxGeometry width="50" height="50" relative="1" as="geometry">
            <mxPoint x="2707" y="840" as="sourcePoint" />
            <mxPoint x="2706.56" y="861.3679999999999" as="targetPoint" />
          </mxGeometry>
        </mxCell>
        <mxCell id="ja8EcCSImnejtaZvBAro-58" value="" style="endArrow=classic;html=1;rounded=0;fontFamily=Helvetica;fontSize=12;fontColor=default;entryX=0.002;entryY=0.361;entryDx=0;entryDy=0;entryPerimeter=0;" parent="1" edge="1">
          <mxGeometry width="50" height="50" relative="1" as="geometry">
            <mxPoint x="2779" y="840" as="sourcePoint" />
            <mxPoint x="2778.56" y="861.3679999999999" as="targetPoint" />
          </mxGeometry>
        </mxCell>
        <mxCell id="ja8EcCSImnejtaZvBAro-59" value="" style="endArrow=classic;html=1;rounded=0;fontFamily=Helvetica;fontSize=12;fontColor=default;entryX=0.002;entryY=0.361;entryDx=0;entryDy=0;entryPerimeter=0;" parent="1" edge="1">
          <mxGeometry width="50" height="50" relative="1" as="geometry">
            <mxPoint x="2848" y="840" as="sourcePoint" />
            <mxPoint x="2847.56" y="861.3679999999999" as="targetPoint" />
          </mxGeometry>
        </mxCell>
        <mxCell id="ja8EcCSImnejtaZvBAro-60" value="" style="endArrow=classic;html=1;rounded=0;fontFamily=Helvetica;fontSize=12;fontColor=default;" parent="1" edge="1">
          <mxGeometry width="50" height="50" relative="1" as="geometry">
            <mxPoint x="2901" y="730" as="sourcePoint" />
            <mxPoint x="2641" y="840" as="targetPoint" />
            <Array as="points">
              <mxPoint x="2641" y="730" />
            </Array>
          </mxGeometry>
        </mxCell>
        <mxCell id="6BlMGuFikLO0LmbPYViE-7" value="7、调用GatewayFilter链&lt;div&gt;GatewayFilter链不是固定通过路由配置的&lt;/div&gt;" style="edgeLabel;html=1;align=center;verticalAlign=middle;resizable=0;points=[];strokeColor=default;fontFamily=Helvetica;fontSize=12;fontColor=default;fillColor=default;" parent="ja8EcCSImnejtaZvBAro-60" vertex="1" connectable="0">
          <mxGeometry x="-0.1676" y="-2" relative="1" as="geometry">
            <mxPoint x="11" as="offset" />
          </mxGeometry>
        </mxCell>
        <mxCell id="ja8EcCSImnejtaZvBAro-64" style="edgeStyle=orthogonalEdgeStyle;rounded=0;orthogonalLoop=1;jettySize=auto;html=1;exitX=0.5;exitY=1;exitDx=0;exitDy=0;entryX=1;entryY=0.5;entryDx=0;entryDy=0;fontFamily=Helvetica;fontSize=12;fontColor=default;" parent="1" source="ja8EcCSImnejtaZvBAro-61" target="4RMhbuVmhxNOeodAHc1t-38" edge="1">
          <mxGeometry relative="1" as="geometry" />
        </mxCell>
        <mxCell id="6BlMGuFikLO0LmbPYViE-8" value="业务服务响应" style="edgeLabel;html=1;align=center;verticalAlign=middle;resizable=0;points=[];strokeColor=default;fontFamily=Helvetica;fontSize=12;fontColor=default;fillColor=default;" parent="ja8EcCSImnejtaZvBAro-64" vertex="1" connectable="0">
          <mxGeometry x="-0.6655" relative="1" as="geometry">
            <mxPoint as="offset" />
          </mxGeometry>
        </mxCell>
        <mxCell id="_btz2HYlA5HhWqlFdrVF-1" value="response" style="edgeLabel;html=1;align=center;verticalAlign=middle;resizable=0;points=[];strokeColor=default;fontFamily=Helvetica;fontSize=12;fontColor=default;fillColor=default;" parent="ja8EcCSImnejtaZvBAro-64" vertex="1" connectable="0">
          <mxGeometry x="0.8026" y="1" relative="1" as="geometry">
            <mxPoint as="offset" />
          </mxGeometry>
        </mxCell>
        <mxCell id="ja8EcCSImnejtaZvBAro-61" value="业务Server" style="ellipse;whiteSpace=wrap;html=1;aspect=fixed;strokeColor=#006EAF;align=center;verticalAlign=middle;fontFamily=Helvetica;fontSize=12;fontColor=#ffffff;fillColor=#1ba1e2;" parent="1" vertex="1">
          <mxGeometry x="3161" y="913" width="80" height="80" as="geometry" />
        </mxCell>
        <mxCell id="6BlMGuFikLO0LmbPYViE-1" value="DataBuffer" style="whiteSpace=wrap;html=1;align=center;rounded=1;fontSize=11;" parent="1" vertex="1">
          <mxGeometry x="1886" y="1051" width="120" height="60" as="geometry" />
        </mxCell>
        <mxCell id="6BlMGuFikLO0LmbPYViE-3" style="edgeStyle=orthogonalEdgeStyle;rounded=0;orthogonalLoop=1;jettySize=auto;html=1;exitX=0;exitY=0.5;exitDx=0;exitDy=0;entryX=0.55;entryY=0.95;entryDx=0;entryDy=0;entryPerimeter=0;fontFamily=Helvetica;fontSize=12;fontColor=default;" parent="1" source="6BlMGuFikLO0LmbPYViE-1" target="4RMhbuVmhxNOeodAHc1t-4" edge="1">
          <mxGeometry relative="1" as="geometry" />
        </mxCell>
        <mxCell id="BT95OJDJH4jNiPTxr1p8-1" value="8、Http响应" style="edgeLabel;html=1;align=center;verticalAlign=middle;resizable=0;points=[];strokeColor=default;fontFamily=Helvetica;fontSize=12;fontColor=default;fillColor=default;" parent="6BlMGuFikLO0LmbPYViE-3" vertex="1" connectable="0">
          <mxGeometry x="0.0671" relative="1" as="geometry">
            <mxPoint y="-1" as="offset" />
          </mxGeometry>
        </mxCell>
        <mxCell id="6BlMGuFikLO0LmbPYViE-4" value="" style="endArrow=classic;html=1;rounded=0;fontFamily=Helvetica;fontSize=12;fontColor=default;entryX=1;entryY=0.25;entryDx=0;entryDy=0;" parent="1" edge="1">
          <mxGeometry width="50" height="50" relative="1" as="geometry">
            <mxPoint x="2995" y="1080" as="sourcePoint" />
            <mxPoint x="2995" y="1045" as="targetPoint" />
          </mxGeometry>
        </mxCell>
        <mxCell id="6BlMGuFikLO0LmbPYViE-5" value="" style="endArrow=classic;html=1;rounded=0;fontFamily=Helvetica;fontSize=12;fontColor=default;entryX=1;entryY=0.25;entryDx=0;entryDy=0;" parent="1" edge="1">
          <mxGeometry width="50" height="50" relative="1" as="geometry">
            <mxPoint x="2570" y="1080" as="sourcePoint" />
            <mxPoint x="2570" y="1045" as="targetPoint" />
          </mxGeometry>
        </mxCell>
        <mxCell id="6BlMGuFikLO0LmbPYViE-6" value="" style="endArrow=classic;html=1;rounded=0;fontFamily=Helvetica;fontSize=12;fontColor=default;entryX=1;entryY=0.25;entryDx=0;entryDy=0;" parent="1" edge="1">
          <mxGeometry width="50" height="50" relative="1" as="geometry">
            <mxPoint x="2445" y="1079" as="sourcePoint" />
            <mxPoint x="2445" y="1044" as="targetPoint" />
          </mxGeometry>
        </mxCell>
      </root>
    </mxGraphModel>
  </diagram>
</mxfile>
